<?xml version="1.0" encoding="UTF-8" standalone="no"?>
<!DOCTYPE svg PUBLIC "-//W3C//DTD SVG 1.1//EN" "http://www.w3.org/Graphics/SVG/1.1/DTD/svg11.dtd">
<svg width="100%" height="100%" viewBox="0 0 64 64" version="1.1" xmlns="http://www.w3.org/2000/svg" xmlns:xlink="http://www.w3.org/1999/xlink" xml:space="preserve" xmlns:serif="http://www.serif.com/" style="fill-rule:evenodd;clip-rule:evenodd;stroke-linejoin:round;stroke-miterlimit:2;">
    <g id="Folder" transform="matrix(1,0,0,1,0,3)">
        <g transform="matrix(1,0,0,1,1,3)">
            <path d="M24,4.75L24,14.25C24,16.872 21.872,19 19.25,19L4.75,19C2.128,19 0,16.872 0,14.25L0,4.75C0,2.128 2.128,0 4.75,0L19.25,0C21.872,0 24,2.128 24,4.75Z" style="fill:rgb(122,0,0);"/>
        </g>
        <g transform="matrix(1.03333,0,0,1,1,3)">
            <path d="M60,11.861L60,48.139C60,49.166 59.193,50 58.199,50L1.801,50C0.807,50 0,49.166 0,48.139L0,11.861C0,10.834 0.807,10 1.801,10L58.199,10C59.193,10 60,10.834 60,11.861Z" style="fill:rgb(122,0,0);"/>
        </g>
        <path d="M63,30.2L63,51.8C63,52.462 62.261,53 61.35,53L2.65,53C1.739,53 1,52.462 1,51.8L1,30.2C1,29.538 1.739,29 2.65,29L61.35,29C62.261,29 63,29.538 63,30.2Z" style="fill:rgb(183,53,53);"/>
    </g>
</svg>
