<?xml version="1.0" encoding="UTF-8" standalone="no"?>
<!DOCTYPE svg PUBLIC "-//W3C//DTD SVG 1.1//EN" "http://www.w3.org/Graphics/SVG/1.1/DTD/svg11.dtd">
<svg width="100%" height="100%" viewBox="0 0 64 64" version="1.1" xmlns="http://www.w3.org/2000/svg" xmlns:xlink="http://www.w3.org/1999/xlink" xml:space="preserve" xmlns:serif="http://www.serif.com/" style="fill-rule:evenodd;clip-rule:evenodd;stroke-linejoin:round;stroke-miterlimit:2;">
    <g id="Folder" transform="matrix(1,0,0,1,0,3)">
        <g transform="matrix(1,0,0,1,1,3)">
            <path d="M24,4.75L24,14.25C24,16.872 21.872,19 19.25,19L4.75,19C2.128,19 0,16.872 0,14.25L0,4.75C0,2.128 2.128,0 4.75,0L19.25,0C21.872,0 24,2.128 24,4.75Z" style="fill:rgb(122,0,0);"/>
        </g>
        <g transform="matrix(1.03333,0,0,1,1,3)">
            <path d="M60,11.861L60,48.139C60,49.166 59.193,50 58.199,50L1.801,50C0.807,50 0,49.166 0,48.139L0,11.861C0,10.834 0.807,10 1.801,10L58.199,10C59.193,10 60,10.834 60,11.861Z" style="fill:rgb(122,0,0);"/>
        </g>
        <path d="M63,30.2L63,51.8C63,52.462 62.261,53 61.35,53L2.65,53C1.739,53 1,52.462 1,51.8L1,30.2C1,29.538 1.739,29 2.65,29L61.35,29C62.261,29 63,29.538 63,30.2Z" style="fill:rgb(183,53,53);"/>
        <path id="closed" d="M63,15L63,51C63,52.104 62.261,53 61.35,53L2.65,53C1.739,53 1,52.104 1,51L1,15C1,13.896 1.739,13 2.65,13L61.35,13C62.261,13 63,13.896 63,15Z" style="fill:rgb(183,53,53);"/>
    </g>
    <g id="add">
        <g transform="matrix(5.44287e-17,0.888889,-1,6.12323e-17,90,1.88889)">
            <path d="M53,29L53,61C53,62.104 51.992,63 50.75,63L46.25,63C45.008,63 44,62.104 44,61L44,29C44,27.896 45.008,27 46.25,27L50.75,27C51.992,27 53,27.896 53,29Z" style="fill:rgb(237,209,209);"/>
        </g>
        <g transform="matrix(0.888889,0,0,1,1.88889,0)">
            <path d="M53,29L53,61C53,62.104 51.992,63 50.75,63L46.25,63C45.008,63 44,62.104 44,61L44,29C44,27.896 45.008,27 46.25,27L50.75,27C51.992,27 53,27.896 53,29Z" style="fill:rgb(237,209,209);"/>
        </g>
    </g>
</svg>
